#!OML:ASF F:\VICON\USERDATA\INSTALL\rory3\rory3.ASF
:FULLY-SPECIFIED
:DEGREES
213
root 4.78262 17.3275 2.92385 13.033 -22.0065 -5.06403
lowerback -1.6417 2.74219 2.66076
upperback -6.3435 3.70637 0.356434
thorax -5.50704 1.71062 -1.2271
lowerneck -10.4579 2.60059 0.319415
upperneck 40.4711 3.18359 1.19011
head 16.1845 1.44452 0.952536
rclavicle -1.88348e-014 -2.94201e-014
rhumerus 16.4928 -4.75825 -16.3543
rradius 118.744
rwrist -50.9099
rhand -4.10072 -42.9413
rfingers 7.12502
rthumb 21.6572 -71.75
lclavicle -1.88348e-014 -2.94201e-014
lhumerus 25.3779 20.0259 7.31973
lradius 78.8842
lwrist 63.8479
lhand -29.8109 -36.5857
lfingers 7.12502
lthumb -3.13488 -6.62901
rfemur -43.0704 -10.9009 9.52447
rtibia 36.4884
rfoot 26.0681 -21.8182
rtoes 6.75102
lfemur -24.0364 3.13191 -26.0048
ltibia 29.6626
lfoot -15.9539 13.607
ltoes 10.5687
214
root 4.78642 17.3285 2.92169 12.9363 -21.8383 -4.91192
lowerback -1.55949 2.67084 2.54346
upperback -6.33524 3.61161 0.348391
thorax -5.55478 1.66846 -1.17199
lowerneck -10.5458 2.54813 0.219193
upperneck 40.5805 3.10215 1.25932
head 16.261 1.4023 0.991553
rclavicle -5.15846e-014 1.41137e-014
rhumerus 16.4646 -4.40387 -16.5337
rradius 118.684
rwrist -50.4255
rhand -3.68934 -42.961
rfingers 7.12502
rthumb 22.0523 -71.7237
lclavicle -5.15846e-014 1.41137e-014
lhumerus 25.2988 19.6449 7.47502
lradius 79.1026
lwrist 63.8667
lhand -28.5848 -31.6974
lfingers 7.12502
lthumb -1.95072 -1.72655
rfemur -43.3644 -11.0309 9.59477
rtibia 36.5723
rfoot 26.5776 -21.6234
rtoes 6.60819
lfemur -23.9497 2.95726 -26.1448
ltibia 29.5971
lfoot -15.9187 13.6327
ltoes 10.4177
215
root 4.78882 17.3318 2.91656 12.9027 -21.7314 -4.89809
lowerback -1.52278 2.63009 2.5167
upperback -6.29184 3.55878 0.380138
thorax -5.53508 1.64517 -1.1235
lowerneck -10.5896 2.45611 0.101054
upperneck 40.6518 2.98816 1.26762
head 16.3081 1.33583 0.999978
rclavicle -2.91344e-014 3.77691e-015
rhumerus 16.4286 -4.12961 -16.7175
rradius 118.652
rwrist -50.0064
rhand -3.77527 -42.7306
rfingers 7.12502
rthumb 21.9698 -71.5029
lclavicle -2.91344e-014 3.77691e-015
lhumerus 25.1991 19.4248 7.62468
lradius 79.355
lwrist 64.2412
lhand -29.1057 -37.8985
lfingers 7.12502
lthumb -2.45383 -7.93285
rfemur -43.6732 -10.8812 9.72797
rtibia 36.6504
rfoot 26.8023 -21.9642
rtoes 7.23197
lfemur -23.899 2.87764 -26.1426
ltibia 29.5238
lfoot -15.8887 13.6269
ltoes 10.2883
216
root 4.78925 17.329 2.90596 12.8476 -21.6822 -4.79618
lowerback -1.52518 2.59004 2.39713
upperback -6.19633 3.50208 0.389956
thorax -5.44156 1.62564 -1.04257
lowerneck -10.6638 2.40282 -0.0451856
upperneck 40.6802 2.93827 1.28738
head 16.3383 1.29397 1.02863
rclavicle -2.99668e-014 1.19271e-014
rhumerus 16.4258 -3.90978 -16.8731
rradius 118.537
rwrist -49.7005
rhand -3.73275 -42.5485
rfingers 7.12502
rthumb 22.0106 -71.3161
lclavicle -2.99668e-014 1.19271e-014
lhumerus 25.1198 19.4533 7.85375
lradius 79.6135
lwrist 64.6294
lhand -28.7884 -38.9756
lfingers 7.12502
lthumb -2.14738 -9.00665
rfemur -44.0543 -10.5933 9.73258
rtibia 36.6989
rfoot 27.929 -21.13
rtoes 4.83054
lfemur -23.9015 2.89834 -26.2272
ltibia 29.442
lfoot -15.8626 13.4356
ltoes 11.0946
217
root 4.79234 17.3294 2.90245 12.7228 -21.6863 -4.63371
lowerback -1.59333 2.57941 2.28522
upperback -6.07226 3.48102 0.368585
thorax -5.2768 1.62373 -0.994983
lowerneck -10.6764 2.38394 -0.180326
upperneck 40.6727 2.93056 1.32919
head 16.333 1.27572 1.07005
rclavicle 1.31571e-014 -6.36111e-015
rhumerus 16.4469 -3.72427 -17.0111
rradius 118.425
rwrist -49.5953
rhand -3.38881 -42.5396
rfingers 7.12502
rthumb 22.3408 -71.268
lclavicle 1.31571e-014 -6.36111e-015
lhumerus 25.1534 19.3653 8.1901
lradius 79.9157
lwrist 64.3816
lhand -29.3107 -39.0379
lfingers 7.12502
lthumb -2.65176 -9.07468
rfemur -44.3668 -10.5199 9.74849
rtibia 36.728
rfoot 29.1774 -19.6987
rtoes 1.80478
lfemur -23.8011 2.93754 -26.4065
ltibia 29.369
lfoot -15.968 13.2524
ltoes 12.3069
218
root 4.79551 17.3308 2.90505 12.6104 -21.7008 -4.60604
lowerback -1.63748 2.58484 2.31732
upperback -5.9822 3.48662 0.384383
thorax -5.15549 1.62799 -0.991779
lowerneck -10.5334 2.38949 -0.225569
upperneck 40.6434 2.98117 1.25283
head 16.2819 1.2804 1.04927
rclavicle 7.23825e-014 1.70955e-014
rhumerus 16.5106 -3.47127 -17.2064
rradius 118.351
rwrist -49.558
rhand -3.38004 -42.5701
rfingers 7.12502
rthumb 22.3492 -71.2974
lclavicle 7.23825e-014 1.70955e-014
lhumerus 25.0384 19.0831 8.41357
lradius 80.2321
lwrist 64.3974
lhand -29.7602 -39.2878
lfingers 7.12502
lthumb -3.08589 -9.33038
rfemur -44.6305 -10.5391 9.96705
rtibia 36.7724
rfoot 30.5318 -17.4488
rtoes -2.37566
lfemur -23.6343 3.07649 -26.4665
ltibia 29.2904
lfoot -15.9706 13.1841
ltoes 11.9257
